<svg width="24" height="24" viewBox="0 0 24 24" fill="none" xmlns="http://www.w3.org/2000/svg">
    <path d="M12 6C16.4183 6 20 4.88071 20 3.5C20 2.11929 16.4183 1 12 1C7.58172 1 4 2.11929 4 3.5C4 4.88071 7.58172 6 12 6Z" stroke="currentColor" stroke-width="2" stroke-linecap="square"/>
    <path d="M20 8.5C20 9.88 16.42 11 12 11C7.58 11 4 9.88 4 8.5" stroke="currentColor" stroke-width="2" stroke-linecap="square"/>
    <path d="M20 13.5C20 14.88 16.42 16 12 16C7.58 16 4 14.88 4 13.5" stroke="currentColor" stroke-width="2" stroke-linecap="square"/>
    <path d="M4 3.5V18.5C4 19.88 7.58 21 12 21C16.42 21 20 19.88 20 18.5V3.5" stroke="currentColor" stroke-width="2" stroke-linecap="square"/>
</svg>

