<svg width="28" height="28" viewBox="0 0 28 28" fill="none" xmlns="http://www.w3.org/2000/svg">
<path d="M23.3333 14H25.6667M23.3333 14C23.3333 12.2997 22.8787 10.7056 22.0842 9.33259M23.3333 14C23.3333 15.7004 22.8786 17.2945 22.0842 18.6675M23.3333 14H16.3333M22.0842 9.33259L24.1036 8.1667M22.0842 9.33259C21.2648 7.91628 20.0838 6.73529 18.6675 5.91581M22.0842 18.6675L24.1036 19.8335M22.0842 18.6675C21.2647 20.0838 20.0837 21.2648 18.6674 22.0843M18.6674 22.0843C17.2945 22.8787 15.7003 23.3334 14 23.3334M18.6674 22.0843L19.8333 24.1037M14 23.3334C12.2997 23.3334 10.7056 22.8787 9.33259 22.0843M14 23.3334V25.6666M9.33259 22.0843L8.16666 24.1038M9.33259 22.0843C7.91625 21.2648 6.73524 20.0838 5.91575 18.6675M9.33259 22.0843L12.8331 16.0211M5.91575 18.6675C5.12134 17.2945 4.66666 15.7004 4.66666 14M5.91575 18.6675L3.89637 19.8334M4.66666 14C4.66666 12.2997 5.12133 10.7056 5.91571 9.33266M4.66666 14L2.33336 13.9999M3.89637 8.16681L5.91571 9.33266M5.91571 9.33266C6.73519 7.9163 7.9162 6.73528 9.33255 5.91578M9.33255 5.91578C10.7055 5.12138 12.2997 4.6667 14 4.6667M9.33255 5.91578L8.16666 3.8964M9.33255 5.91578L12.8331 11.979M14 4.6667V2.33325M14 4.6667C15.7003 4.6667 17.2945 5.12139 18.6675 5.91581M18.6675 5.91581L19.8333 3.89652M16.3333 14C16.3333 15.2887 15.2887 16.3334 14 16.3334C13.5749 16.3334 13.1764 16.2197 12.8331 16.0211M16.3333 14C16.3333 12.7114 15.2887 11.6667 14 11.6667C13.5749 11.6667 13.1764 11.7804 12.8331 11.979M12.8331 11.979C12.1358 12.3824 11.6667 13.1365 11.6667 14C11.6667 14.8636 12.1358 15.6176 12.8331 16.0211" stroke="currentColor" stroke-width="2.33333" stroke-linecap="square"/>
</svg>
