<svg width="24" height="24" viewBox="0 0 24 24" fill="none" xmlns="http://www.w3.org/2000/svg">
    <path d="M20 12H22M20 12C20 10.5426 19.6103 9.17615 18.9294 7.99931M20 12C20 13.4574 19.6103 14.8238 18.9293 16.0007M20 12H14M18.9294 7.99931L20.6603 6.99998M18.9294 7.99931C18.227 6.78533 17.2147 5.77305 16.0007 5.07064M18.9293 16.0007L20.6603 17.0001M18.9293 16.0007C18.2269 17.2147 17.2146 18.2269 16.0007 18.9293M16.0007 18.9293C14.8238 19.6103 13.4574 20 12 20M16.0007 18.9293L17 20.6602M12 20C10.5426 20 9.17621 19.6103 7.99937 18.9294M12 20V21.9999M7.99937 18.9294L7.00001 20.6603M7.99937 18.9294C6.78536 18.2269 5.77307 17.2146 5.07065 16.0006M7.99937 18.9294L10.9998 13.7323M5.07065 16.0006C4.38973 14.8238 4.00001 13.4574 4.00001 12M5.07065 16.0006L3.33975 17M4.00001 12C4.00001 10.5426 4.38972 9.1762 5.07062 7.99937M4.00001 12L2.00003 11.9999M3.33975 7.00007L5.07062 7.99937M5.07062 7.99937C5.77303 6.78535 6.78533 5.77304 7.99934 5.07062M7.99934 5.07062C9.17618 4.3897 10.5426 3.99998 12 3.99998M7.99934 5.07062L7.00001 3.33972M7.99934 5.07062L10.9998 10.2676M12 3.99998V1.99988M12 3.99998C13.4574 3.99998 14.8239 4.38971 16.0007 5.07064M16.0007 5.07064L17 3.33982M14 12C14 13.1045 13.1046 14 12 14C11.6357 14 11.2941 13.9025 10.9998 13.7323M14 12C14 10.8954 13.1046 9.99998 12 9.99998C11.6357 9.99998 11.2941 10.0974 10.9998 10.2676M10.9998 10.2676C10.4021 10.6135 10 11.2598 10 12C10 12.7402 10.4021 13.3865 10.9998 13.7323" stroke="currentColor" stroke-width="2" stroke-linecap="square"/>
</svg>
