<svg width="28" height="28" viewBox="0 0 28 28" fill="none" xmlns="http://www.w3.org/2000/svg">
<path d="M8.16667 4.66663V8.16663M8.16667 8.16663V11.6666M8.16667 8.16663H4.66667M8.16667 8.16663H11.6667M22.3079 17.3579L19.833 19.8328M19.833 19.8328L17.3582 22.3077M19.833 19.8328L17.3582 17.3579M19.833 19.8328L22.3079 22.3077M4.66667 16.3333H11.6667V23.3333H4.66667V16.3333ZM19.8333 11.6666C17.9003 11.6666 16.3333 10.0996 16.3333 8.16663C16.3333 6.23363 17.9003 4.66663 19.8333 4.66663C21.7663 4.66663 23.3333 6.23363 23.3333 8.16663C23.3333 10.0996 21.7663 11.6666 19.8333 11.6666Z" stroke="currentColor" stroke-width="2.33333" stroke-linecap="square"/>
</svg>
